<svg xmlns="http://www.w3.org/2000/svg" width="1200" height="680" viewBox="0 0 1200 680" fill="none">
  <rect width="1200" height="680" fill="#F8FAFC"/>
  <text x="24" y="52" fill="#0F172A" font-family="Arial, sans-serif" font-size="48" font-weight="700">Bookings</text>
  <text x="24" y="88" fill="#64748B" font-family="Arial, sans-serif" font-size="26">Track and manage bookings for this business.</text>
  <rect x="1030" y="20" width="150" height="56" rx="10" fill="#020617"/>
  <text x="1050" y="58" fill="#FFFFFF" font-family="Arial, sans-serif" font-size="32" font-weight="700">Create</text>

  <rect x="20" y="108" width="370" height="66" rx="16" fill="#F0F9FF" stroke="#7DD3FC"/>
  <circle cx="42" cy="141" r="7" fill="#0EA5E9"/>
  <text x="58" y="148" fill="#0F172A" font-family="Arial, sans-serif" font-size="38" font-weight="700">Created</text>
  <rect x="350" y="124" width="30" height="34" rx="14" fill="#E0F2FE"/>
  <text x="360" y="146" fill="#0369A1" font-family="Arial, sans-serif" font-size="21" font-weight="700">2</text>

  <rect x="410" y="108" width="370" height="66" rx="16" fill="#FFFBEB" stroke="#FCD34D"/>
  <circle cx="432" cy="141" r="7" fill="#F59E0B"/>
  <text x="448" y="148" fill="#0F172A" font-family="Arial, sans-serif" font-size="38" font-weight="700">Not Finish</text>
  <rect x="740" y="124" width="30" height="34" rx="14" fill="#FEF3C7"/>
  <text x="750" y="146" fill="#92400E" font-family="Arial, sans-serif" font-size="21" font-weight="700">2</text>

  <rect x="800" y="108" width="370" height="66" rx="16" fill="#ECFDF5" stroke="#86EFAC"/>
  <circle cx="822" cy="141" r="7" fill="#10B981"/>
  <text x="838" y="148" fill="#0F172A" font-family="Arial, sans-serif" font-size="38" font-weight="700">Finished</text>
  <rect x="1130" y="124" width="30" height="34" rx="14" fill="#DCFCE7"/>
  <text x="1140" y="146" fill="#166534" font-family="Arial, sans-serif" font-size="21" font-weight="700">1</text>

  <rect x="20" y="188" width="370" height="188" rx="16" fill="#FFFFFF" stroke="#93C5FD" stroke-width="2"/>
  <rect x="46" y="214" width="182" height="30" rx="15" fill="#F1F5F9"/>
  <text x="74" y="235" fill="#334155" font-family="Arial, sans-serif" font-size="20" font-weight="700">Skyline Bowling</text>
  <rect x="238" y="214" width="98" height="30" rx="15" fill="#E0F2FE"/>
  <text x="262" y="235" fill="#0369A1" font-family="Arial, sans-serif" font-size="20" font-weight="700">Created</text>
  <text x="44" y="292" fill="#0F172A" font-family="Arial, sans-serif" font-size="38" font-weight="700">Lane Reservation</text>
  <text x="44" y="336" fill="#475569" font-family="Arial, sans-serif" font-size="28">2 lanes reserved. Shoe rental included.</text>

  <rect x="410" y="188" width="370" height="188" rx="16" fill="#FFFFFF" stroke="#FCD34D" stroke-width="2"/>
  <rect x="436" y="214" width="182" height="30" rx="15" fill="#F1F5F9"/>
  <text x="464" y="235" fill="#334155" font-family="Arial, sans-serif" font-size="20" font-weight="700">Skyline Bowling</text>
  <rect x="628" y="214" width="120" height="30" rx="15" fill="#FEF3C7"/>
  <text x="646" y="235" fill="#92400E" font-family="Arial, sans-serif" font-size="20" font-weight="700">In progress</text>
  <text x="434" y="292" fill="#0F172A" font-family="Arial, sans-serif" font-size="38" font-weight="700">Party Package</text>
  <text x="434" y="336" fill="#475569" font-family="Arial, sans-serif" font-size="28">Active booking with service updates.</text>

  <rect x="800" y="188" width="370" height="188" rx="16" fill="#FFFFFF" stroke="#86EFAC" stroke-width="2"/>
  <rect x="826" y="214" width="182" height="30" rx="15" fill="#F1F5F9"/>
  <text x="854" y="235" fill="#334155" font-family="Arial, sans-serif" font-size="20" font-weight="700">Skyline Bowling</text>
  <rect x="1018" y="214" width="112" height="30" rx="15" fill="#DCFCE7"/>
  <text x="1040" y="235" fill="#166534" font-family="Arial, sans-serif" font-size="20" font-weight="700">Finished</text>
  <text x="824" y="292" fill="#0F172A" font-family="Arial, sans-serif" font-size="38" font-weight="700">Corporate Bundle</text>
  <text x="824" y="336" fill="#475569" font-family="Arial, sans-serif" font-size="28">Completed booking and customer sign-off.</text>

  <rect x="20" y="396" width="370" height="188" rx="16" fill="#FFFFFF" stroke="#93C5FD" stroke-width="2"/>
  <text x="44" y="500" fill="#334155" font-family="Arial, sans-serif" font-size="28">Another created booking card</text>

  <rect x="410" y="396" width="370" height="188" rx="16" fill="#FFFFFF" stroke="#FCD34D" stroke-width="2"/>
  <text x="434" y="500" fill="#334155" font-family="Arial, sans-serif" font-size="28">Another in-progress booking card</text>
</svg>
