<svg xmlns="http://www.w3.org/2000/svg" width="1200" height="680" viewBox="0 0 1200 680" fill="none">
  <rect width="1200" height="680" fill="#F8FAFC"/>
  <rect x="0" y="0" width="1200" height="76" fill="#FFFFFF" stroke="#E2E8F0"/>
  <circle cx="36" cy="38" r="16" fill="#E2E8F0"/>
  <text x="62" y="34" fill="#0F172A" font-family="Arial, sans-serif" font-size="24" font-weight="700">Tamara V</text>
  <text x="62" y="60" fill="#64748B" font-family="Arial, sans-serif" font-size="14">tamarademo@gmail.com</text>
  <rect x="920" y="20" width="120" height="36" rx="10" fill="#F8FAFC" stroke="#CBD5E1"/>
  <text x="938" y="43" fill="#334155" font-family="Arial, sans-serif" font-size="16" font-weight="600">Subscription</text>
  <rect x="1050" y="20" width="110" height="36" rx="10" fill="#F8FAFC" stroke="#CBD5E1"/>
  <text x="1082" y="43" fill="#334155" font-family="Arial, sans-serif" font-size="16" font-weight="600">Edit</text>

  <text x="28" y="132" fill="#0F172A" font-family="Arial, sans-serif" font-size="44" font-weight="700">Settings</text>
  <text x="28" y="168" fill="#64748B" font-family="Arial, sans-serif" font-size="24">Manage your team members and roles.</text>
  <rect x="1020" y="110" width="154" height="54" rx="10" fill="#020617"/>
  <text x="1042" y="146" fill="#FFFFFF" font-family="Arial, sans-serif" font-size="30" font-weight="700">Create</text>

  <rect x="28" y="196" width="1144" height="206" rx="16" fill="#FFFFFF" stroke="#CBD5E1"/>
  <rect x="28" y="196" width="1144" height="56" rx="16" fill="#F8FAFC"/>
  <text x="52" y="232" fill="#64748B" font-family="Arial, sans-serif" font-size="20" font-weight="700">NAME</text>
  <text x="360" y="232" fill="#64748B" font-family="Arial, sans-serif" font-size="20" font-weight="700">EMAIL</text>
  <text x="890" y="232" fill="#64748B" font-family="Arial, sans-serif" font-size="20" font-weight="700">ROLE</text>
  <line x1="28" y1="307" x2="1172" y2="307" stroke="#E2E8F0"/>
  <text x="52" y="286" fill="#0F172A" font-family="Arial, sans-serif" font-size="30" font-weight="700">121323</text>
  <text x="360" y="286" fill="#334155" font-family="Arial, sans-serif" font-size="30">dindemo@gmail.com</text>
  <text x="900" y="286" fill="#0F172A" font-family="Arial, sans-serif" font-size="30" font-weight="700">Admin</text>
  <text x="52" y="362" fill="#0F172A" font-family="Arial, sans-serif" font-size="30" font-weight="700">Tamara V</text>
  <text x="360" y="362" fill="#334155" font-family="Arial, sans-serif" font-size="30">tamarademo@gmail.com</text>
  <text x="900" y="362" fill="#0F172A" font-family="Arial, sans-serif" font-size="30" font-weight="700">Admin</text>

  <rect x="28" y="430" width="1144" height="230" rx="20" fill="#FFFFFF" stroke="#CBD5E1"/>
  <text x="52" y="474" fill="#0F172A" font-family="Arial, sans-serif" font-size="44" font-weight="700">Profile Settings</text>
  <text x="52" y="506" fill="#64748B" font-family="Arial, sans-serif" font-size="24">Update your name, email, and avatar.</text>

  <circle cx="82" cy="564" r="28" fill="#E2E8F0"/>
  <text x="124" y="556" fill="#1E293B" font-family="Arial, sans-serif" font-size="24" font-weight="700">Profile photo</text>
  <text x="124" y="582" fill="#64748B" font-family="Arial, sans-serif" font-size="20">Shown across the app</text>

  <rect x="52" y="610" width="480" height="36" rx="8" fill="#F8FAFC" stroke="#CBD5E1"/>
  <rect x="560" y="610" width="500" height="36" rx="8" fill="#F8FAFC" stroke="#CBD5E1"/>
  <rect x="1030" y="612" width="130" height="42" rx="12" fill="#0B1732"/>
  <text x="1052" y="640" fill="#FFFFFF" font-family="Arial, sans-serif" font-size="20" font-weight="700">Save</text>
</svg>
